<svg height='100px' width='100px'  fill="#4711b8" xmlns:dc="http://purl.org/dc/elements/1.1/" xmlns:cc="http://creativecommons.org/ns#" xmlns:rdf="http://www.w3.org/1999/02/22-rdf-syntax-ns#" xmlns:svg="http://www.w3.org/2000/svg" xmlns="http://www.w3.org/2000/svg" xmlns:sodipodi="http://sodipodi.sourceforge.net/DTD/sodipodi-0.dtd" xmlns:inkscape="http://www.inkscape.org/namespaces/inkscape" viewBox="0 0 32 32.000001" version="1.1" x="0px" y="0px"><g transform="translate(0,-1020.3622)"><path style="" d="M 16 0 C 7.1634443 0 2.6212347e-018 7.1634443 0 16 C 0 24.836556 7.1634443 32 16 32 C 24.836556 32 32 24.836556 32 16 C 32 7.1634443 24.836556 2.6212347e-018 16 0 z M 16 6.15625 C 19.831537 6.15625 23.09375 8.7126501 23.09375 11.96875 L 23.09375 17.46875 L 23.09375 18.125 L 23.09375 24.3125 C 23.09375 25.183 22.257327 25.84375 21.40625 25.84375 C 20.555182 25.84375 19.75 25.1831 19.75 24.3125 L 19.75 21.75 C 19.75 21.3241 19.628181 21.0585 19.4375 20.875 C 19.246819 20.6916 18.98332 20.59405 18.71875 20.59375 C 18.454181 20.59345 18.190944 20.6987 18 20.875 C 17.809056 21.0514 17.65625 21.3049 17.65625 21.6875 L 17.65625 24.3125 C 17.65625 25.1832 16.851078 25.84375 16 25.84375 C 15.148932 25.84375 14.34375 25.1832 14.34375 24.3125 L 14.34375 21.6875 C 14.34375 21.344 14.190485 21.1033 14 20.9375 C 13.809515 20.7722 13.550112 20.6875 13.28125 20.6875 C 13.012387 20.6858 12.750869 20.7672 12.5625 20.9375 C 12.37413 21.1079 12.25 21.3508 12.25 21.75 L 12.25 24.3125 C 12.25 25.1831 11.444827 25.84375 10.59375 25.84375 C 9.74268 25.84375 8.90625 25.1831 8.90625 24.3125 L 8.90625 18.125 L 8.90625 17.46875 L 8.90625 11.96875 C 8.90625 8.7126501 12.168464 6.15625 16 6.15625 z M 13.34375 11.125 C 12.434177 11.125 11.6875 11.87575 11.6875 12.78125 C 11.6875 13.68675 12.434177 14.40625 13.34375 14.40625 C 14.253323 14.40625 15 13.68675 15 12.78125 C 15 11.87575 14.253323 11.125 13.34375 11.125 z M 18.4375 11.125 C 17.527927 11.125 16.78125 11.87575 16.78125 12.78125 C 16.78125 13.68675 17.527927 14.40625 18.4375 14.40625 C 19.347074 14.40625 20.09375 13.68675 20.09375 12.78125 C 20.09375 11.87575 19.347074 11.125 18.4375 11.125 z " transform="translate(-5e-7,1020.3622)" fill="#4711b8" fill-opacity="1" fill-rule="evenodd" stroke="none"></path></g></svg>